# Blender 4.2.0
# www.blender.org
mtllib wave_tornado.mtl
o WaveTornado
v -0.092228 0.000000 -0.995738
v -1.551672 1.000000 -0.739132
v 0.168630 0.000000 -0.985679
v -1.307499 1.000000 -1.115548
v 0.417997 0.000000 -0.908448
v -0.974222 1.000000 -1.415943
v 0.638878 0.000000 -0.769308
v -0.574553 1.000000 -1.619843
v 0.816220 0.000000 -0.577741
v -0.135730 1.000000 -1.713353
v 0.937939 0.000000 -0.346802
v 0.312344 1.000000 -1.690102
v 0.995738 0.000000 -0.092228
v 0.739132 1.000000 -1.551672
v 0.985679 0.000000 0.168630
v 1.115548 1.000000 -1.307499
v 0.908448 0.000000 0.417997
v 1.415943 1.000000 -0.974222
v 0.769308 0.000000 0.638878
v 1.619843 1.000000 -0.574553
v 0.577741 0.000000 0.816220
v 1.713353 1.000000 -0.135729
v 0.346802 0.000000 0.937939
v 1.690102 1.000000 0.312344
v 0.092228 0.000000 0.995738
v 1.551672 1.000000 0.739132
v -0.168630 0.000000 0.985679
v 1.307499 1.000000 1.115549
v -0.417997 0.000000 0.908448
v 0.974222 1.000000 1.415943
v -0.638878 0.000000 0.769308
v 0.574553 1.000000 1.619843
v -0.816220 0.000000 0.577741
v 0.135730 1.000000 1.713354
v -0.937939 0.000000 0.346802
v -0.312344 1.000000 1.690102
v -0.995738 0.000000 0.092228
v -0.739132 1.000000 1.551672
v -0.985679 0.000000 -0.168630
v -1.115548 1.000000 1.307499
v -0.908448 0.000000 -0.417997
v -1.415943 1.000000 0.974222
v -0.769308 0.000000 -0.638878
v -1.619843 1.000000 0.574553
v -0.577741 0.000000 -0.816220
v -1.713354 1.000000 0.135730
v -0.346802 0.000000 -0.937939
v -1.690102 1.000000 -0.312344
v -0.457041 0.250000 -1.087547
v -0.860879 0.500000 -1.052021
v -1.225589 0.750000 -0.930902
v -0.942893 0.750000 -1.216388
v -0.559262 0.500000 -1.238986
v -0.159990 0.250000 -1.168781
v -0.595940 0.750000 -1.418979
v -0.219533 0.500000 -1.341516
v 0.147965 0.250000 -1.170364
v -0.208375 0.750000 -1.524869
v 0.135158 0.500000 -1.352625
v 0.445835 0.250000 -1.092189
v 0.193390 0.750000 -1.526842
v 0.480637 0.500000 -1.271554
v 0.713323 0.250000 -0.939583
v 0.581976 0.750000 -1.424763
v 0.793362 0.500000 -1.103828
v 0.932199 0.250000 -0.722946
v 0.930902 0.750000 -1.225589
v 1.052021 0.500000 -0.860879
v 1.087547 0.250000 -0.457041
v 1.216388 0.750000 -0.942893
v 1.238986 0.500000 -0.559262
v 1.168781 0.250000 -0.159990
v 1.418979 0.750000 -0.595940
v 1.341516 0.500000 -0.219533
v 1.170364 0.250000 0.147965
v 1.524869 0.750000 -0.208375
v 1.352625 0.500000 0.135158
v 1.092189 0.250000 0.445835
v 1.526842 0.750000 0.193390
v 1.271554 0.500000 0.480637
v 0.939583 0.250000 0.713323
v 1.424763 0.750000 0.581976
v 1.103828 0.500000 0.793362
v 0.722946 0.250000 0.932199
v 1.225589 0.750000 0.930902
v 0.860879 0.500000 1.052021
v 0.457041 0.250000 1.087547
v 0.942893 0.750000 1.216388
v 0.559262 0.500000 1.238986
v 0.159990 0.250000 1.168781
v 0.595940 0.750000 1.418979
v 0.219533 0.500000 1.341516
v -0.147965 0.250000 1.170364
v 0.208375 0.750000 1.524869
v -0.135158 0.500000 1.352625
v -0.445835 0.250000 1.092189
v -0.193390 0.750000 1.526842
v -0.480637 0.500000 1.271554
v -0.713323 0.250000 0.939583
v -0.581976 0.750000 1.424763
v -0.793362 0.500000 1.103828
v -0.932199 0.250000 0.722946
v -0.930902 0.750000 1.225589
v -1.052021 0.500000 0.860879
v -1.087547 0.250000 0.457041
v -1.216388 0.750000 0.942893
v -1.238986 0.500000 0.559262
v -1.168781 0.250000 0.159990
v -1.418979 0.750000 0.595940
v -1.341516 0.500000 0.219533
v -1.170364 0.250000 -0.147965
v -1.524869 0.750000 0.208375
v -1.352625 0.500000 -0.135158
v -1.092189 0.250000 -0.445835
v -1.526842 0.750000 -0.193390
v -1.271554 0.500000 -0.480637
v -0.939583 0.250000 -0.713323
v -1.424763 0.750000 -0.581976
v -1.103828 0.500000 -0.793362
v -0.722946 0.250000 -0.932199
vn -0.1494 -0.5871 -0.7956
vn -0.7216 -0.5848 -0.3705
vn 0.0616 -0.5871 -0.8072
vn -0.6011 -0.5848 -0.5447
vn 0.2684 -0.5871 -0.7637
vn -0.4397 -0.5848 -0.6817
vn 0.4570 -0.5871 -0.6682
vn -0.2483 -0.5848 -0.7723
vn 0.6143 -0.5871 -0.5272
vn -0.0399 -0.5848 -0.8102
vn 0.7298 -0.5871 -0.3502
vn 0.1711 -0.5848 -0.7929
vn 0.7956 -0.5871 -0.1494
vn 0.3705 -0.5848 -0.7216
vn 0.8072 -0.5871 0.0616
vn 0.5447 -0.5848 -0.6011
vn 0.7637 -0.5871 0.2684
vn 0.6817 -0.5848 -0.4397
vn 0.6682 -0.5871 0.4570
vn 0.7723 -0.5848 -0.2483
vn 0.5272 -0.5871 0.6143
vn 0.8102 -0.5848 -0.0399
vn 0.3502 -0.5871 0.7298
vn 0.7929 -0.5848 0.1711
vn 0.1494 -0.5871 0.7956
vn 0.7216 -0.5848 0.3705
vn -0.0616 -0.5871 0.8072
vn 0.6011 -0.5848 0.5447
vn -0.2684 -0.5871 0.7637
vn 0.4397 -0.5848 0.6817
vn -0.4570 -0.5871 0.6682
vn 0.2483 -0.5848 0.7723
vn -0.6143 -0.5871 0.5272
vn 0.0399 -0.5848 0.8102
vn -0.7298 -0.5871 0.3502
vn -0.1711 -0.5848 0.7929
vn -0.7956 -0.5871 0.1494
vn -0.3705 -0.5848 0.7216
vn -0.8072 -0.5871 -0.0616
vn -0.5447 -0.5848 0.6011
vn -0.7637 -0.5871 -0.2684
vn -0.6817 -0.5848 0.4397
vn -0.6682 -0.5871 -0.4570
vn -0.7723 -0.5848 0.2483
vn -0.5272 -0.5871 -0.6143
vn -0.8102 -0.5848 0.0399
vn -0.3502 -0.5871 -0.7298
vn -0.7929 -0.5848 -0.1711
vn -0.3171 -0.5880 -0.7441
vn -0.5110 -0.5866 -0.6283
vn -0.6453 -0.5854 -0.4908
vn -0.4963 -0.5854 -0.6411
vn -0.3310 -0.5866 -0.7391
vn -0.1138 -0.5880 -0.8008
vn -0.3135 -0.5854 -0.7477
vn -0.1284 -0.5866 -0.7996
vn 0.0974 -0.5880 -0.8030
vn -0.1092 -0.5854 -0.8034
vn 0.0829 -0.5866 -0.8056
vn 0.3019 -0.5880 -0.7504
vn 0.1024 -0.5854 -0.8043
vn 0.2886 -0.5866 -0.7567
vn 0.4858 -0.5880 -0.6467
vn 0.3071 -0.5854 -0.7504
vn 0.4746 -0.5866 -0.6562
vn 0.6366 -0.5880 -0.4989
vn 0.4908 -0.5854 -0.6453
vn 0.6283 -0.5866 -0.5110
vn 0.7441 -0.5880 -0.3171
vn 0.6411 -0.5854 -0.4963
vn 0.7391 -0.5866 -0.3310
vn 0.8008 -0.5880 -0.1138
vn 0.7477 -0.5854 -0.3135
vn 0.7996 -0.5866 -0.1284
vn 0.8030 -0.5880 0.0974
vn 0.8034 -0.5854 -0.1092
vn 0.8056 -0.5866 0.0829
vn 0.7504 -0.5880 0.3019
vn 0.8043 -0.5854 0.1024
vn 0.7567 -0.5866 0.2886
vn 0.6467 -0.5880 0.4858
vn 0.7504 -0.5854 0.3071
vn 0.6562 -0.5866 0.4746
vn 0.4989 -0.5880 0.6366
vn 0.6453 -0.5854 0.4908
vn 0.5110 -0.5866 0.6283
vn 0.3171 -0.5880 0.7441
vn 0.4963 -0.5854 0.6411
vn 0.3310 -0.5866 0.7391
vn 0.1138 -0.5880 0.8008
vn 0.3135 -0.5854 0.7477
vn 0.1284 -0.5866 0.7996
vn -0.0974 -0.5880 0.8030
vn 0.1092 -0.5854 0.8034
vn -0.0829 -0.5866 0.8056
vn -0.3019 -0.5880 0.7504
vn -0.1024 -0.5854 0.8043
vn -0.2886 -0.5866 0.7567
vn -0.4858 -0.5880 0.6467
vn -0.3071 -0.5854 0.7504
vn -0.4746 -0.5866 0.6562
vn -0.6366 -0.5880 0.4989
vn -0.4908 -0.5854 0.6453
vn -0.6283 -0.5866 0.5110
vn -0.7441 -0.5880 0.3171
vn -0.6411 -0.5854 0.4963
vn -0.7391 -0.5866 0.3310
vn -0.8008 -0.5880 0.1138
vn -0.7477 -0.5854 0.3135
vn -0.7996 -0.5866 0.1284
vn -0.8030 -0.5880 -0.0974
vn -0.8034 -0.5854 0.1092
vn -0.8056 -0.5866 -0.0829
vn -0.7504 -0.5880 -0.3019
vn -0.8043 -0.5854 -0.1024
vn -0.7567 -0.5866 -0.2886
vn -0.6467 -0.5880 -0.4858
vn -0.7504 -0.5854 -0.3071
vn -0.6562 -0.5866 -0.4746
vn -0.4989 -0.5880 -0.6366
vt 1.000000 0.875000
vt 1.000000 1.000000
vt 0.958333 1.000000
vt 0.958333 0.875000
vt 0.916667 1.000000
vt 0.916667 0.875000
vt 0.875000 1.000000
vt 0.875000 0.875000
vt 0.833333 1.000000
vt 0.833333 0.875000
vt 0.791667 1.000000
vt 0.791667 0.875000
vt 0.750000 1.000000
vt 0.750000 0.875000
vt 0.708333 1.000000
vt 0.708333 0.875000
vt 0.666667 1.000000
vt 0.666667 0.875000
vt 0.625000 1.000000
vt 0.625000 0.875000
vt 0.583333 1.000000
vt 0.583333 0.875000
vt 0.541666 1.000000
vt 0.541666 0.875000
vt 0.500000 1.000000
vt 0.500000 0.875000
vt 0.458333 1.000000
vt 0.458333 0.875000
vt 0.416666 1.000000
vt 0.416666 0.875000
vt 0.375000 1.000000
vt 0.375000 0.875000
vt 0.333333 1.000000
vt 0.333333 0.875000
vt 0.291667 1.000000
vt 0.291667 0.875000
vt 0.250000 1.000000
vt 0.250000 0.875000
vt 0.208333 1.000000
vt 0.208333 0.875000
vt 0.166666 1.000000
vt 0.166666 0.875000
vt 0.125000 1.000000
vt 0.125000 0.875000
vt 0.083333 1.000000
vt 0.083333 0.875000
vt 0.041666 1.000000
vt 0.041666 0.875000
vt -0.000000 1.000000
vt -0.000000 0.875000
vt 0.041666 0.500000
vt 0.041666 0.625000
vt -0.000000 0.625000
vt -0.000000 0.500000
vt 0.041666 0.750000
vt -0.000000 0.750000
vt 0.083333 0.500000
vt 0.083333 0.625000
vt 0.083333 0.750000
vt 0.125000 0.500000
vt 0.125000 0.625000
vt 0.125000 0.750000
vt 0.166666 0.500000
vt 0.166666 0.625000
vt 0.166666 0.750000
vt 0.208333 0.500000
vt 0.208333 0.625000
vt 0.208333 0.750000
vt 0.250000 0.500000
vt 0.250000 0.625000
vt 0.250000 0.750000
vt 0.291667 0.500000
vt 0.291667 0.625000
vt 0.291667 0.750000
vt 0.333333 0.500000
vt 0.333333 0.625000
vt 0.333333 0.750000
vt 0.375000 0.500000
vt 0.375000 0.625000
vt 0.375000 0.750000
vt 0.416666 0.500000
vt 0.416666 0.625000
vt 0.416666 0.750000
vt 0.458333 0.500000
vt 0.458333 0.625000
vt 0.458333 0.750000
vt 0.500000 0.500000
vt 0.500000 0.625000
vt 0.500000 0.750000
vt 0.541666 0.500000
vt 0.541666 0.625000
vt 0.541666 0.750000
vt 0.583333 0.500000
vt 0.583333 0.625000
vt 0.583333 0.750000
vt 0.625000 0.500000
vt 0.625000 0.625000
vt 0.625000 0.750000
vt 0.666667 0.500000
vt 0.666667 0.625000
vt 0.666667 0.750000
vt 0.708333 0.500000
vt 0.708333 0.625000
vt 0.708333 0.750000
vt 0.750000 0.500000
vt 0.750000 0.625000
vt 0.750000 0.750000
vt 0.791667 0.500000
vt 0.791667 0.625000
vt 0.791667 0.750000
vt 0.833333 0.500000
vt 0.833333 0.625000
vt 0.833333 0.750000
vt 0.875000 0.500000
vt 0.875000 0.625000
vt 0.875000 0.750000
vt 0.916667 0.500000
vt 0.916667 0.625000
vt 0.916667 0.750000
vt 0.958333 0.500000
vt 0.958333 0.625000
vt 0.958333 0.750000
vt 1.000000 0.500000
vt 1.000000 0.625000
vt 1.000000 0.750000
s 1
f 51/1/51 2/2/2 4/3/4 52/4/52
f 52/4/52 4/3/4 6/5/6 55/6/55
f 55/6/55 6/5/6 8/7/8 58/8/58
f 58/8/58 8/7/8 10/9/10 61/10/61
f 61/10/61 10/9/10 12/11/12 64/12/64
f 64/12/64 12/11/12 14/13/14 67/14/67
f 67/14/67 14/13/14 16/15/16 70/16/70
f 70/16/70 16/15/16 18/17/18 73/18/73
f 73/18/73 18/17/18 20/19/20 76/20/76
f 76/20/76 20/19/20 22/21/22 79/22/79
f 79/22/79 22/21/22 24/23/24 82/24/82
f 82/24/82 24/23/24 26/25/26 85/26/85
f 85/26/85 26/25/26 28/27/28 88/28/88
f 88/28/88 28/27/28 30/29/30 91/30/91
f 91/30/91 30/29/30 32/31/32 94/32/94
f 94/32/94 32/31/32 34/33/34 97/34/97
f 97/34/97 34/33/34 36/35/36 100/36/100
f 100/36/100 36/35/36 38/37/38 103/38/103
f 103/38/103 38/37/38 40/39/40 106/40/106
f 106/40/106 40/39/40 42/41/42 109/42/109
f 109/42/109 42/41/42 44/43/44 112/44/112
f 112/44/112 44/43/44 46/45/46 115/46/115
f 115/46/115 46/45/46 48/47/48 118/48/118
f 118/48/118 48/47/48 2/49/2 51/50/51
f 47/51/47 120/52/120 49/53/49 1/54/1
f 120/52/120 119/55/119 50/56/50 49/53/49
f 119/55/119 118/48/118 51/50/51 50/56/50
f 45/57/45 117/58/117 120/52/120 47/51/47
f 117/58/117 116/59/116 119/55/119 120/52/120
f 116/59/116 115/46/115 118/48/118 119/55/119
f 43/60/43 114/61/114 117/58/117 45/57/45
f 114/61/114 113/62/113 116/59/116 117/58/117
f 113/62/113 112/44/112 115/46/115 116/59/116
f 41/63/41 111/64/111 114/61/114 43/60/43
f 111/64/111 110/65/110 113/62/113 114/61/114
f 110/65/110 109/42/109 112/44/112 113/62/113
f 39/66/39 108/67/108 111/64/111 41/63/41
f 108/67/108 107/68/107 110/65/110 111/64/111
f 107/68/107 106/40/106 109/42/109 110/65/110
f 37/69/37 105/70/105 108/67/108 39/66/39
f 105/70/105 104/71/104 107/68/107 108/67/108
f 104/71/104 103/38/103 106/40/106 107/68/107
f 35/72/35 102/73/102 105/70/105 37/69/37
f 102/73/102 101/74/101 104/71/104 105/70/105
f 101/74/101 100/36/100 103/38/103 104/71/104
f 33/75/33 99/76/99 102/73/102 35/72/35
f 99/76/99 98/77/98 101/74/101 102/73/102
f 98/77/98 97/34/97 100/36/100 101/74/101
f 31/78/31 96/79/96 99/76/99 33/75/33
f 96/79/96 95/80/95 98/77/98 99/76/99
f 95/80/95 94/32/94 97/34/97 98/77/98
f 29/81/29 93/82/93 96/79/96 31/78/31
f 93/82/93 92/83/92 95/80/95 96/79/96
f 92/83/92 91/30/91 94/32/94 95/80/95
f 27/84/27 90/85/90 93/82/93 29/81/29
f 90/85/90 89/86/89 92/83/92 93/82/93
f 89/86/89 88/28/88 91/30/91 92/83/92
f 25/87/25 87/88/87 90/85/90 27/84/27
f 87/88/87 86/89/86 89/86/89 90/85/90
f 86/89/86 85/26/85 88/28/88 89/86/89
f 23/90/23 84/91/84 87/88/87 25/87/25
f 84/91/84 83/92/83 86/89/86 87/88/87
f 83/92/83 82/24/82 85/26/85 86/89/86
f 21/93/21 81/94/81 84/91/84 23/90/23
f 81/94/81 80/95/80 83/92/83 84/91/84
f 80/95/80 79/22/79 82/24/82 83/92/83
f 19/96/19 78/97/78 81/94/81 21/93/21
f 78/97/78 77/98/77 80/95/80 81/94/81
f 77/98/77 76/20/76 79/22/79 80/95/80
f 17/99/17 75/100/75 78/97/78 19/96/19
f 75/100/75 74/101/74 77/98/77 78/97/78
f 74/101/74 73/18/73 76/20/76 77/98/77
f 15/102/15 72/103/72 75/100/75 17/99/17
f 72/103/72 71/104/71 74/101/74 75/100/75
f 71/104/71 70/16/70 73/18/73 74/101/74
f 13/105/13 69/106/69 72/103/72 15/102/15
f 69/106/69 68/107/68 71/104/71 72/103/72
f 68/107/68 67/14/67 70/16/70 71/104/71
f 11/108/11 66/109/66 69/106/69 13/105/13
f 66/109/66 65/110/65 68/107/68 69/106/69
f 65/110/65 64/12/64 67/14/67 68/107/68
f 9/111/9 63/112/63 66/109/66 11/108/11
f 63/112/63 62/113/62 65/110/65 66/109/66
f 62/113/62 61/10/61 64/12/64 65/110/65
f 7/114/7 60/115/60 63/112/63 9/111/9
f 60/115/60 59/116/59 62/113/62 63/112/63
f 59/116/59 58/8/58 61/10/61 62/113/62
f 5/117/5 57/118/57 60/115/60 7/114/7
f 57/118/57 56/119/56 59/116/59 60/115/60
f 56/119/56 55/6/55 58/8/58 59/116/59
f 3/120/3 54/121/54 57/118/57 5/117/5
f 54/121/54 53/122/53 56/119/56 57/118/57
f 53/122/53 52/4/52 55/6/55 56/119/56
f 1/123/1 49/124/49 54/121/54 3/120/3
f 49/124/49 50/125/50 53/122/53 54/121/54
f 50/125/50 51/1/51 52/4/52 53/122/53
